<svg width="571" height="553" viewBox="0 0 571 553" fill="none" xmlns="http://www.w3.org/2000/svg">
<g opacity="0.5">
<path fill-rule="evenodd" clip-rule="evenodd" d="M469.142 294.365V344.329H465.091V294.365H469.142Z" fill="#BDBDBD"/>
<path fill-rule="evenodd" clip-rule="evenodd" d="M467.116 342.833C468.264 342.833 469.142 343.418 469.142 344.087C469.142 344.756 468.264 345.341 467.116 345.341C465.969 345.341 465.091 344.756 465.091 344.087C465.091 343.418 465.969 342.833 467.116 342.833Z" fill="#BDBDBD"/>
<path fill-rule="evenodd" clip-rule="evenodd" d="M459.014 295.04V333.526H454.963V295.04H459.014Z" fill="#BDBDBD"/>
<path fill-rule="evenodd" clip-rule="evenodd" d="M456.988 332.176C458.136 332.176 459.014 332.761 459.014 333.43C459.014 334.098 458.136 334.684 456.988 334.684C455.841 334.684 454.963 334.098 454.963 333.43C454.963 332.761 455.841 332.176 456.988 332.176Z" fill="#BDBDBD"/>
<path fill-rule="evenodd" clip-rule="evenodd" d="M456.988 294.365C458.136 294.365 459.014 294.68 459.014 295.04C459.014 295.401 458.136 295.716 456.988 295.716C455.841 295.716 454.963 295.401 454.963 295.04C454.963 294.68 455.841 294.365 456.988 294.365Z" fill="#06AFFF"/>
<path fill-rule="evenodd" clip-rule="evenodd" d="M479.27 282.887V305.843H475.219V282.887H479.27Z" fill="#BDBDBD"/>
<path fill-rule="evenodd" clip-rule="evenodd" d="M477.244 304.492C478.392 304.492 479.27 305.077 479.27 305.746C479.27 306.415 478.392 307 477.244 307C476.096 307 475.219 306.415 475.219 305.746C475.219 305.077 476.096 304.492 477.244 304.492Z" fill="#BDBDBD"/>
<path fill-rule="evenodd" clip-rule="evenodd" d="M348.404 244.275L348.404 232.62C348.404 232.62 459.334 182.825 460.162 183.298L570.561 233.741V244.531C570.561 244.531 570.561 245.607 569.485 246.145L461.05 308.678C460.222 309.152 458.919 309.152 458.091 308.678L349.055 245.873C348.227 245.4 348.404 244.275 348.404 244.275Z" fill="#DBDDDE"/>
<path fill-rule="evenodd" clip-rule="evenodd" d="M348.926 231.857L458.204 169.81C459.033 169.337 460.335 169.337 461.164 169.81L570.009 232.933C570.837 233.407 570.837 234.176 570.009 234.65L462.111 296.663C461.282 297.137 459.98 297.137 459.151 296.663L348.985 233.574C348.157 233.1 348.097 232.331 348.926 231.857Z" fill="#F3F3F3"/>
<path fill-rule="evenodd" clip-rule="evenodd" d="M414.698 231.482L458.6 206.065C458.927 205.867 459.45 205.867 459.843 206.065L504.007 231.68C504.334 231.878 504.334 232.208 504.007 232.406L460.17 257.757C459.843 257.955 459.319 257.955 458.927 257.757L414.698 232.142C414.37 231.944 414.37 231.68 414.698 231.482Z" fill="#DBDDDE"/>
<path fill-rule="evenodd" clip-rule="evenodd" d="M422.774 236.198C422.774 236.198 458.045 215.851 458.339 215.705C458.633 215.559 459.147 215.559 459.441 215.705C459.736 215.851 496.149 236.298 496.149 236.298C496.443 236.444 496.443 236.737 496.149 236.956L460.027 257.904C459.732 258.05 459.094 258.05 458.8 257.904L422.774 236.855C422.48 236.636 422.48 236.344 422.774 236.198Z" fill="#F9F9FE"/>
<path fill-rule="evenodd" clip-rule="evenodd" d="M448.887 322.048V351.811H444.835V322.048H448.887Z" fill="#BDBDBD"/>
<path fill-rule="evenodd" clip-rule="evenodd" d="M446.861 351.191C448.009 351.191 448.887 351.481 448.887 351.811C448.887 352.142 448.009 352.432 446.861 352.432C445.713 352.432 444.835 352.142 444.835 351.811C444.835 351.481 445.713 351.191 446.861 351.191Z" fill="#F32626"/>
<path fill-rule="evenodd" clip-rule="evenodd" d="M446.861 321.373C448.009 321.373 448.887 321.688 448.887 322.048C448.887 322.408 448.009 322.723 446.861 322.723C445.713 322.723 444.835 322.408 444.835 322.048C444.835 321.688 445.713 321.373 446.861 321.373Z" fill="#F3F3F3"/>
<path fill-rule="evenodd" clip-rule="evenodd" d="M469.192 127.932V228.872H465.141V127.932H469.192Z" fill="#BDBDBD"/>
<path fill-rule="evenodd" clip-rule="evenodd" d="M467.116 227.715C468.264 227.715 469.142 228.3 469.142 228.969C469.142 229.638 468.264 230.223 467.116 230.223C465.969 230.223 465.091 229.638 465.091 228.969C465.091 228.3 465.969 227.715 467.116 227.715Z" fill="#BDBDBD"/>
<path fill-rule="evenodd" clip-rule="evenodd" d="M479.32 206.591V215.127H475.269V206.591H479.32Z" fill="#BDBDBD"/>
<path fill-rule="evenodd" clip-rule="evenodd" d="M477.294 214.018C478.442 214.018 479.32 214.603 479.32 215.271C479.32 215.94 478.442 216.525 477.294 216.525C476.146 216.525 475.269 215.94 475.269 215.271C475.269 214.603 476.146 214.018 477.294 214.018Z" fill="#BDBDBD"/>
<path fill-rule="evenodd" clip-rule="evenodd" d="M477.294 191.583C478.442 191.583 479.32 192.168 479.32 192.837C479.32 193.506 478.442 194.091 477.294 194.091C476.146 194.091 475.269 193.506 475.269 192.837C475.269 192.168 476.146 191.583 477.294 191.583Z" fill="#BDBDBD"/>
<path fill-rule="evenodd" clip-rule="evenodd" d="M477.294 205.916C478.442 205.916 479.32 206.231 479.32 206.591C479.32 206.951 478.442 207.266 477.294 207.266C476.146 207.266 475.269 206.951 475.269 206.591C475.269 206.231 476.146 205.916 477.294 205.916Z" fill="#F3F3F3"/>
<path fill-rule="evenodd" clip-rule="evenodd" d="M448.936 87.7578V96.2941H444.885V87.7578H448.936Z" fill="#BDBDBD"/>
<path fill-rule="evenodd" clip-rule="evenodd" d="M446.911 95.1846C448.059 95.1846 448.936 95.7697 448.936 96.4385C448.936 97.1072 448.059 97.6924 446.911 97.6924C445.763 97.6924 444.885 97.1072 444.885 96.4385C444.885 95.7697 445.763 95.1846 446.911 95.1846Z" fill="#BDBDBD"/>
<path fill-rule="evenodd" clip-rule="evenodd" d="M446.911 87.083C448.059 87.083 448.936 87.3981 448.936 87.7582C448.936 88.1183 448.059 88.4334 446.911 88.4334C445.763 88.4334 444.885 88.1183 444.885 87.7582C444.885 87.3981 445.763 87.083 446.911 87.083Z" fill="#F3F3F3"/>
<path fill-rule="evenodd" clip-rule="evenodd" d="M448.936 305.168V313.704H444.885V305.168H448.936Z" fill="#BDBDBD"/>
<path fill-rule="evenodd" clip-rule="evenodd" d="M446.91 312.595C448.058 312.595 448.936 313.18 448.936 313.849C448.936 314.517 448.058 315.103 446.91 315.103C445.763 315.103 444.885 314.517 444.885 313.849C444.885 313.18 445.763 312.595 446.91 312.595Z" fill="#BDBDBD"/>
<path fill-rule="evenodd" clip-rule="evenodd" d="M479.319 163.379V193.142H475.268V163.379H479.319Z" fill="#BDBDBD"/>
<path fill-rule="evenodd" clip-rule="evenodd" d="M477.294 162.703C478.441 162.703 479.319 163.018 479.319 163.378C479.319 163.738 478.441 164.053 477.294 164.053C476.146 164.053 475.268 163.738 475.268 163.378C475.268 163.018 476.146 162.703 477.294 162.703Z" fill="#F3F3F3"/>
<path fill-rule="evenodd" clip-rule="evenodd" d="M446.91 304.492C448.058 304.492 448.936 304.807 448.936 305.167C448.936 305.527 448.058 305.843 446.91 305.843C445.763 305.843 444.885 305.527 444.885 305.167C444.885 304.807 445.763 304.492 446.91 304.492Z" fill="#F3F3F3"/>
<path fill-rule="evenodd" clip-rule="evenodd" d="M479.319 315.296V323.832H475.268V315.296H479.319Z" fill="#BDBDBD"/>
<path fill-rule="evenodd" clip-rule="evenodd" d="M477.294 322.723C478.441 322.723 479.319 323.308 479.319 323.977C479.319 324.645 478.441 325.23 477.294 325.23C476.146 325.23 475.268 324.645 475.268 323.977C475.268 323.308 476.146 322.723 477.294 322.723Z" fill="#BDBDBD"/>
<path fill-rule="evenodd" clip-rule="evenodd" d="M477.294 314.621C478.441 314.621 479.319 314.936 479.319 315.296C479.319 315.656 478.441 315.971 477.294 315.971C476.146 315.971 475.268 315.656 475.268 315.296C475.268 314.936 476.146 314.621 477.294 314.621Z" fill="#F3F3F3"/>
<path fill-rule="evenodd" clip-rule="evenodd" d="M479.319 114.767V123.303H475.268V114.767H479.319Z" fill="#BDBDBD"/>
<path fill-rule="evenodd" clip-rule="evenodd" d="M477.294 122.193C478.441 122.193 479.319 122.779 479.319 123.447C479.319 124.116 478.441 124.701 477.294 124.701C476.146 124.701 475.268 124.116 475.268 123.447C475.268 122.779 476.146 122.193 477.294 122.193Z" fill="#BDBDBD"/>
<path fill-rule="evenodd" clip-rule="evenodd" d="M477.294 114.091C478.441 114.091 479.319 114.406 479.319 114.766C479.319 115.126 478.441 115.441 477.294 115.441C476.146 115.441 475.268 115.126 475.268 114.766C475.268 114.406 476.146 114.091 477.294 114.091Z" fill="#F3F3F3"/>
<path fill-rule="evenodd" clip-rule="evenodd" d="M479.319 332.852V348.14C477.737 348.14 476.85 348.14 475.268 348.14V332.852H479.319Z" fill="#BDBDBD"/>
<path fill-rule="evenodd" clip-rule="evenodd" d="M477.294 347.03C478.441 347.03 479.319 347.615 479.319 348.284C479.319 348.953 478.441 349.538 477.294 349.538C476.146 349.538 475.268 348.953 475.268 348.284C475.268 347.615 476.146 347.03 477.294 347.03Z" fill="#BDBDBD"/>
<path fill-rule="evenodd" clip-rule="evenodd" d="M477.294 332.176C478.441 332.176 479.319 332.491 479.319 332.851C479.319 333.211 478.441 333.526 477.294 333.526C476.146 333.526 475.268 333.211 475.268 332.851C475.268 332.491 476.146 332.176 477.294 332.176Z" fill="#F3F3F3"/>
<path fill-rule="evenodd" clip-rule="evenodd" d="M469.191 105.988V111.149C467.609 111.149 466.722 111.149 465.14 111.149V105.988H469.191Z" fill="#BDBDBD"/>
<path fill-rule="evenodd" clip-rule="evenodd" d="M467.166 110.04C468.314 110.04 469.191 110.625 469.191 111.294C469.191 111.963 468.314 112.548 467.166 112.548C466.018 112.548 465.14 111.963 465.14 111.294C465.14 110.625 466.018 110.04 467.166 110.04Z" fill="#BDBDBD"/>
<path fill-rule="evenodd" clip-rule="evenodd" d="M467.166 105.313C468.314 105.313 469.191 105.629 469.191 105.989C469.191 106.349 468.314 106.664 467.166 106.664C466.018 106.664 465.14 106.349 465.14 105.989C465.14 105.629 466.018 105.313 467.166 105.313Z" fill="#F3F3F3"/>
<path fill-rule="evenodd" clip-rule="evenodd" d="M469.191 237.649V246.186H465.14V237.649H469.191Z" fill="#BDBDBD"/>
<path fill-rule="evenodd" clip-rule="evenodd" d="M467.166 245.077C468.314 245.077 469.191 245.662 469.191 246.331C469.191 247 468.314 247.585 467.166 247.585C466.018 247.585 465.14 247 465.14 246.331C465.14 245.662 466.018 245.077 467.166 245.077Z" fill="#BDBDBD"/>
<path fill-rule="evenodd" clip-rule="evenodd" d="M467.166 236.975C468.314 236.975 469.191 237.29 469.191 237.65C469.191 238.01 468.314 238.325 467.166 238.325C466.018 238.325 465.14 238.01 465.14 237.65C465.14 237.29 466.018 236.975 467.166 236.975Z" fill="#F3F3F3"/>
<path fill-rule="evenodd" clip-rule="evenodd" d="M467.166 127.257C468.314 127.257 469.192 127.572 469.192 127.932C469.192 128.292 468.314 128.607 467.166 128.607C466.018 128.607 465.141 128.292 465.141 127.932C465.141 127.572 466.018 127.257 467.166 127.257Z" fill="#F3F3F3"/>
<path fill-rule="evenodd" clip-rule="evenodd" d="M459.014 93.1592V174.182H454.963V93.1592H459.014Z" fill="#BDBDBD"/>
<path fill-rule="evenodd" clip-rule="evenodd" d="M456.989 173.024C458.137 173.024 459.014 173.61 459.014 174.278C459.014 174.947 458.137 175.532 456.989 175.532C455.841 175.532 454.963 174.947 454.963 174.278C454.963 173.61 455.841 173.024 456.989 173.024Z" fill="#BDBDBD"/>
<path fill-rule="evenodd" clip-rule="evenodd" d="M456.989 92.4844C458.137 92.4844 459.014 92.7995 459.014 93.1596C459.014 93.5197 458.137 93.8347 456.989 93.8347C455.841 93.8347 454.963 93.5197 454.963 93.1596C454.963 92.7995 455.841 92.4844 456.989 92.4844Z" fill="#F3F3F3"/>
<path fill-rule="evenodd" clip-rule="evenodd" d="M448.887 205.24V243.726H444.835V205.24H448.887Z" fill="#BDBDBD"/>
<path fill-rule="evenodd" clip-rule="evenodd" d="M446.861 242.376C448.009 242.376 448.887 242.961 448.887 243.63C448.887 244.299 448.009 244.884 446.861 244.884C445.713 244.884 444.835 244.299 444.835 243.63C444.835 242.961 445.713 242.376 446.861 242.376Z" fill="#BDBDBD"/>
<path fill-rule="evenodd" clip-rule="evenodd" d="M446.861 204.565C448.009 204.565 448.887 204.881 448.887 205.241C448.887 205.601 448.009 205.916 446.861 205.916C445.713 205.916 444.835 205.601 444.835 205.241C444.835 204.881 445.713 204.565 446.861 204.565Z" fill="#F3F3F3"/>
<path fill-rule="evenodd" clip-rule="evenodd" d="M459.014 189.035V211.992H454.963V189.035H459.014Z" fill="#BDBDBD"/>
<path fill-rule="evenodd" clip-rule="evenodd" d="M456.989 210.642C458.137 210.642 459.014 211.227 459.014 211.896C459.014 212.564 458.137 213.149 456.989 213.149C455.841 213.149 454.963 212.564 454.963 211.896C454.963 211.227 455.841 210.642 456.989 210.642Z" fill="#BDBDBD"/>
<path fill-rule="evenodd" clip-rule="evenodd" d="M456.989 188.36C458.137 188.36 459.014 188.675 459.014 189.036C459.014 189.396 458.137 189.711 456.989 189.711C455.841 189.711 454.963 189.396 454.963 189.036C454.963 188.675 455.841 188.36 456.989 188.36Z" fill="#F3F3F3"/>
<path fill-rule="evenodd" clip-rule="evenodd" d="M479.27 135.696V153.926H475.219V135.696H479.27Z" fill="#BDBDBD"/>
<path fill-rule="evenodd" clip-rule="evenodd" d="M477.244 152.576C478.392 152.576 479.27 153.161 479.27 153.83C479.27 154.499 478.392 155.084 477.244 155.084C476.096 155.084 475.219 154.499 475.219 153.83C475.219 153.161 476.096 152.576 477.244 152.576Z" fill="#BDBDBD"/>
<path fill-rule="evenodd" clip-rule="evenodd" d="M477.244 135.021C478.392 135.021 479.27 135.336 479.27 135.696C479.27 136.056 478.392 136.371 477.244 136.371C476.096 136.371 475.219 136.056 475.219 135.696C475.219 135.336 476.096 135.021 477.244 135.021Z" fill="#F3F3F3"/>
<path fill-rule="evenodd" clip-rule="evenodd" d="M479.27 225.495V246.763L475.219 249.127V225.495H479.27Z" fill="#BDBDBD"/>
<path fill-rule="evenodd" clip-rule="evenodd" d="M477.244 224.82C478.392 224.82 479.27 225.135 479.27 225.495C479.27 225.856 478.392 226.171 477.244 226.171C476.096 226.171 475.219 225.856 475.219 225.495C475.219 225.135 476.096 224.82 477.244 224.82Z" fill="#F3F3F3"/>
<path fill-rule="evenodd" clip-rule="evenodd" d="M459.014 231.572V257.998L454.963 255.632V231.572H459.014Z" fill="#BDBDBD"/>
<path fill-rule="evenodd" clip-rule="evenodd" d="M456.988 230.897C458.136 230.897 459.014 231.213 459.014 231.573C459.014 231.933 458.136 232.248 456.988 232.248C455.841 232.248 454.963 231.933 454.963 231.573C454.963 231.213 455.841 230.897 456.988 230.897Z" fill="#F3F3F3"/>
<path fill-rule="evenodd" clip-rule="evenodd" d="M448.887 114.09V182.284H444.835V114.09H448.887Z" fill="#BDBDBD"/>
<path fill-rule="evenodd" clip-rule="evenodd" d="M446.861 181.719C448.009 181.719 448.887 182.008 448.887 182.339C448.887 182.67 448.009 182.959 446.861 182.959C445.713 182.959 444.835 182.67 444.835 182.339C444.835 182.008 445.713 181.719 446.861 181.719Z" fill="#BDBDBD"/>
<path fill-rule="evenodd" clip-rule="evenodd" d="M446.861 113.415C448.009 113.415 448.887 113.73 448.887 114.09C448.887 114.45 448.009 114.765 446.861 114.765C445.713 114.765 444.835 114.45 444.835 114.09C444.835 113.73 445.713 113.415 446.861 113.415Z" fill="#F3F3F3"/>
</g>
<g opacity="0.5">
<path fill-rule="evenodd" clip-rule="evenodd" d="M120.809 311.782V361.746H116.758V311.782H120.809Z" fill="#BDBDBD"/>
<path fill-rule="evenodd" clip-rule="evenodd" d="M118.783 360.25C119.931 360.25 120.809 360.835 120.809 361.504C120.809 362.173 119.931 362.758 118.783 362.758C117.636 362.758 116.758 362.173 116.758 361.504C116.758 360.835 117.636 360.25 118.783 360.25Z" fill="#BDBDBD"/>
<path fill-rule="evenodd" clip-rule="evenodd" d="M110.681 312.457V350.943H106.63V312.457H110.681Z" fill="#BDBDBD"/>
<path fill-rule="evenodd" clip-rule="evenodd" d="M108.655 349.593C109.803 349.593 110.681 350.178 110.681 350.847C110.681 351.515 109.803 352.101 108.655 352.101C107.508 352.101 106.63 351.515 106.63 350.847C106.63 350.178 107.508 349.593 108.655 349.593Z" fill="#BDBDBD"/>
<path fill-rule="evenodd" clip-rule="evenodd" d="M108.655 311.782C109.803 311.782 110.681 312.097 110.681 312.457C110.681 312.818 109.803 313.133 108.655 313.133C107.508 313.133 106.63 312.818 106.63 312.457C106.63 312.097 107.508 311.782 108.655 311.782Z" fill="#06AFFF"/>
<path fill-rule="evenodd" clip-rule="evenodd" d="M130.936 300.304V323.26H126.885V300.304H130.936Z" fill="#BDBDBD"/>
<path fill-rule="evenodd" clip-rule="evenodd" d="M128.911 321.91C130.059 321.91 130.936 322.495 130.936 323.164C130.936 323.833 130.059 324.418 128.911 324.418C127.763 324.418 126.885 323.833 126.885 323.164C126.885 322.495 127.763 321.91 128.911 321.91Z" fill="#BDBDBD"/>
<path fill-rule="evenodd" clip-rule="evenodd" d="M0.0706699 261.691L0.0706699 250.036C0.0706699 250.036 111 200.241 111.829 200.714L222.227 251.157V261.947C222.227 261.947 222.227 263.023 221.152 263.561L112.717 326.094C111.888 326.568 110.586 326.568 109.757 326.094L0.721804 263.289C-0.106912 262.816 0.0706699 261.691 0.0706699 261.691Z" fill="#DBDDDE"/>
<path fill-rule="evenodd" clip-rule="evenodd" d="M0.592715 249.274L109.871 187.227C110.7 186.754 112.002 186.754 112.831 187.227L221.675 250.35C222.504 250.824 222.504 251.593 221.675 252.067L113.778 314.08C112.949 314.554 111.647 314.554 110.818 314.08L0.651909 250.991C-0.176807 250.517 -0.236001 249.748 0.592715 249.274Z" fill="#F3F3F3"/>
<path fill-rule="evenodd" clip-rule="evenodd" d="M66.364 248.897L110.266 223.48C110.593 223.282 111.117 223.282 111.509 223.48L155.673 249.095C156 249.293 156 249.623 155.673 249.821L111.836 275.172C111.509 275.37 110.986 275.37 110.593 275.172L66.364 249.557C66.0369 249.359 66.0369 249.095 66.364 248.897Z" fill="#DBDDDE"/>
<path fill-rule="evenodd" clip-rule="evenodd" d="M74.4413 253.614C74.4413 253.614 109.712 233.267 110.006 233.121C110.3 232.975 110.814 232.975 111.108 233.121C111.403 233.267 147.816 253.714 147.816 253.714C148.11 253.861 148.11 254.153 147.816 254.372L111.694 275.32C111.399 275.466 110.761 275.466 110.467 275.32L74.4413 254.271C74.1472 254.052 74.1472 253.76 74.4413 253.614Z" fill="#F9F9FE"/>
<path fill-rule="evenodd" clip-rule="evenodd" d="M100.554 339.465V369.228H96.5024V339.465H100.554Z" fill="#BDBDBD"/>
<path fill-rule="evenodd" clip-rule="evenodd" d="M98.528 368.607C99.6758 368.607 100.554 368.897 100.554 369.227C100.554 369.558 99.6758 369.848 98.528 369.848C97.3802 369.848 96.5024 369.558 96.5024 369.227C96.5024 368.897 97.3802 368.607 98.528 368.607Z" fill="#BDBDBD"/>
<path fill-rule="evenodd" clip-rule="evenodd" d="M98.5275 338.789C99.6753 338.789 100.553 339.104 100.553 339.464C100.553 339.824 99.6753 340.139 98.5275 340.139C97.3797 340.139 96.502 339.824 96.502 339.464C96.502 339.104 97.3797 338.789 98.5275 338.789Z" fill="#F3F3F3"/>
<path fill-rule="evenodd" clip-rule="evenodd" d="M120.859 145.349V246.289H116.808V145.349H120.859Z" fill="#BDBDBD"/>
<path fill-rule="evenodd" clip-rule="evenodd" d="M118.783 245.131C119.931 245.131 120.809 245.716 120.809 246.385C120.809 247.054 119.931 247.639 118.783 247.639C117.636 247.639 116.758 247.054 116.758 246.385C116.758 245.716 117.636 245.131 118.783 245.131Z" fill="#BDBDBD"/>
<path fill-rule="evenodd" clip-rule="evenodd" d="M130.986 224.008V232.544H126.935V224.008H130.986Z" fill="#BDBDBD"/>
<path fill-rule="evenodd" clip-rule="evenodd" d="M128.961 231.436C130.108 231.436 130.986 232.021 130.986 232.689C130.986 233.358 130.108 233.943 128.961 233.943C127.813 233.943 126.935 233.358 126.935 232.689C126.935 232.021 127.813 231.436 128.961 231.436Z" fill="#BDBDBD"/>
<path fill-rule="evenodd" clip-rule="evenodd" d="M128.961 209C130.108 209 130.986 209.585 130.986 210.254C130.986 210.923 130.108 211.508 128.961 211.508C127.813 211.508 126.935 210.923 126.935 210.254C126.935 209.585 127.813 209 128.961 209Z" fill="#BDBDBD"/>
<path fill-rule="evenodd" clip-rule="evenodd" d="M128.961 223.332C130.108 223.332 130.986 223.647 130.986 224.007C130.986 224.367 130.108 224.682 128.961 224.682C127.813 224.682 126.935 224.367 126.935 224.007C126.935 223.647 127.813 223.332 128.961 223.332Z" fill="#F3F3F3"/>
<path fill-rule="evenodd" clip-rule="evenodd" d="M100.603 105.175V113.711H96.5518V105.175H100.603Z" fill="#BDBDBD"/>
<path fill-rule="evenodd" clip-rule="evenodd" d="M98.5773 112.601C99.7251 112.601 100.603 113.186 100.603 113.855C100.603 114.523 99.7251 115.108 98.5773 115.108C97.4295 115.108 96.5518 114.523 96.5518 113.855C96.5518 113.186 97.4295 112.601 98.5773 112.601Z" fill="#BDBDBD"/>
<path fill-rule="evenodd" clip-rule="evenodd" d="M98.5773 104.499C99.7251 104.499 100.603 104.814 100.603 105.174C100.603 105.534 99.7251 105.849 98.5773 105.849C97.4295 105.849 96.5518 105.534 96.5518 105.174C96.5518 104.814 97.4295 104.499 98.5773 104.499Z" fill="#F3F3F3"/>
<path fill-rule="evenodd" clip-rule="evenodd" d="M100.603 322.584V331.12H96.5518V322.584H100.603Z" fill="#BDBDBD"/>
<path fill-rule="evenodd" clip-rule="evenodd" d="M98.5773 330.012C99.7251 330.012 100.603 330.597 100.603 331.266C100.603 331.934 99.7251 332.52 98.5773 332.52C97.4295 332.52 96.5518 331.934 96.5518 331.266C96.5518 330.597 97.4295 330.012 98.5773 330.012Z" fill="#BDBDBD"/>
<path fill-rule="evenodd" clip-rule="evenodd" d="M130.986 180.795V210.558H126.935V180.795H130.986Z" fill="#BDBDBD"/>
<path fill-rule="evenodd" clip-rule="evenodd" d="M128.961 180.12C130.108 180.12 130.986 180.435 130.986 180.795C130.986 181.155 130.108 181.47 128.961 181.47C127.813 181.47 126.935 181.155 126.935 180.795C126.935 180.435 127.813 180.12 128.961 180.12Z" fill="#F3F3F3"/>
<path fill-rule="evenodd" clip-rule="evenodd" d="M98.5773 321.909C99.7251 321.909 100.603 322.224 100.603 322.584C100.603 322.944 99.7251 323.26 98.5773 323.26C97.4295 323.26 96.5518 322.944 96.5518 322.584C96.5518 322.224 97.4295 321.909 98.5773 321.909Z" fill="#F3F3F3"/>
<path fill-rule="evenodd" clip-rule="evenodd" d="M130.986 332.713V341.249H126.935V332.713H130.986Z" fill="#BDBDBD"/>
<path fill-rule="evenodd" clip-rule="evenodd" d="M128.961 340.14C130.108 340.14 130.986 340.725 130.986 341.394C130.986 342.062 130.108 342.647 128.961 342.647C127.813 342.647 126.935 342.062 126.935 341.394C126.935 340.725 127.813 340.14 128.961 340.14Z" fill="#BDBDBD"/>
<path fill-rule="evenodd" clip-rule="evenodd" d="M128.961 332.037C130.108 332.037 130.986 332.352 130.986 332.712C130.986 333.072 130.108 333.387 128.961 333.387C127.813 333.387 126.935 333.072 126.935 332.712C126.935 332.352 127.813 332.037 128.961 332.037Z" fill="#F3F3F3"/>
<path fill-rule="evenodd" clip-rule="evenodd" d="M130.986 132.182V140.718H126.935V132.182H130.986Z" fill="#BDBDBD"/>
<path fill-rule="evenodd" clip-rule="evenodd" d="M128.961 139.609C130.108 139.609 130.986 140.195 130.986 140.863C130.986 141.532 130.108 142.117 128.961 142.117C127.813 142.117 126.935 141.532 126.935 140.863C126.935 140.195 127.813 139.609 128.961 139.609Z" fill="#BDBDBD"/>
<path fill-rule="evenodd" clip-rule="evenodd" d="M128.961 131.507C130.108 131.507 130.986 131.822 130.986 132.182C130.986 132.542 130.108 132.857 128.961 132.857C127.813 132.857 126.935 132.542 126.935 132.182C126.935 131.822 127.813 131.507 128.961 131.507Z" fill="#F3F3F3"/>
<path fill-rule="evenodd" clip-rule="evenodd" d="M130.986 350.268V365.556C129.404 365.556 128.517 365.556 126.935 365.556V350.268H130.986Z" fill="#BDBDBD"/>
<path fill-rule="evenodd" clip-rule="evenodd" d="M128.961 364.446C130.108 364.446 130.986 365.031 130.986 365.7C130.986 366.369 130.108 366.954 128.961 366.954C127.813 366.954 126.935 366.369 126.935 365.7C126.935 365.031 127.813 364.446 128.961 364.446Z" fill="#BDBDBD"/>
<path fill-rule="evenodd" clip-rule="evenodd" d="M128.961 349.592C130.108 349.592 130.986 349.907 130.986 350.267C130.986 350.627 130.108 350.942 128.961 350.942C127.813 350.942 126.935 350.627 126.935 350.267C126.935 349.907 127.813 349.592 128.961 349.592Z" fill="#F3F3F3"/>
<path fill-rule="evenodd" clip-rule="evenodd" d="M120.858 123.404V128.565C119.276 128.565 118.389 128.565 116.807 128.565V123.404H120.858Z" fill="#BDBDBD"/>
<path fill-rule="evenodd" clip-rule="evenodd" d="M118.833 127.455C119.981 127.455 120.858 128.04 120.858 128.709C120.858 129.378 119.981 129.963 118.833 129.963C117.685 129.963 116.807 129.378 116.807 128.709C116.807 128.04 117.685 127.455 118.833 127.455Z" fill="#BDBDBD"/>
<path fill-rule="evenodd" clip-rule="evenodd" d="M118.833 122.729C119.981 122.729 120.858 123.045 120.858 123.405C120.858 123.765 119.981 124.08 118.833 124.08C117.685 124.08 116.807 123.765 116.807 123.405C116.807 123.045 117.685 122.729 118.833 122.729Z" fill="#F3F3F3"/>
<path fill-rule="evenodd" clip-rule="evenodd" d="M120.858 255.066V263.603H116.807V255.066H120.858Z" fill="#BDBDBD"/>
<path fill-rule="evenodd" clip-rule="evenodd" d="M118.833 262.493C119.981 262.493 120.858 263.078 120.858 263.747C120.858 264.416 119.981 265.001 118.833 265.001C117.685 265.001 116.807 264.416 116.807 263.747C116.807 263.078 117.685 262.493 118.833 262.493Z" fill="#BDBDBD"/>
<path fill-rule="evenodd" clip-rule="evenodd" d="M118.833 254.391C119.981 254.391 120.858 254.706 120.858 255.066C120.858 255.426 119.981 255.741 118.833 255.741C117.685 255.741 116.807 255.426 116.807 255.066C116.807 254.706 117.685 254.391 118.833 254.391Z" fill="#F3F3F3"/>
<path fill-rule="evenodd" clip-rule="evenodd" d="M118.833 144.673C119.981 144.673 120.858 144.988 120.858 145.348C120.858 145.708 119.981 146.023 118.833 146.023C117.685 146.023 116.807 145.708 116.807 145.348C116.807 144.988 117.685 144.673 118.833 144.673Z" fill="#F3F3F3"/>
<path fill-rule="evenodd" clip-rule="evenodd" d="M110.681 110.576V191.599H106.629V110.576H110.681Z" fill="#BDBDBD"/>
<path fill-rule="evenodd" clip-rule="evenodd" d="M108.655 190.441C109.803 190.441 110.681 191.027 110.681 191.695C110.681 192.364 109.803 192.949 108.655 192.949C107.507 192.949 106.629 192.364 106.629 191.695C106.629 191.027 107.507 190.441 108.655 190.441Z" fill="#BDBDBD"/>
<path fill-rule="evenodd" clip-rule="evenodd" d="M108.655 109.901C109.803 109.901 110.681 110.216 110.681 110.577C110.681 110.937 109.803 111.252 108.655 111.252C107.507 111.252 106.629 110.937 106.629 110.577C106.629 110.216 107.507 109.901 108.655 109.901Z" fill="#F3F3F3"/>
<path fill-rule="evenodd" clip-rule="evenodd" d="M100.554 222.657V261.143H96.5024V222.657H100.554Z" fill="#BDBDBD"/>
<path fill-rule="evenodd" clip-rule="evenodd" d="M98.528 259.793C99.6758 259.793 100.554 260.378 100.554 261.047C100.554 261.716 99.6758 262.301 98.528 262.301C97.3802 262.301 96.5024 261.716 96.5024 261.047C96.5024 260.378 97.3802 259.793 98.528 259.793Z" fill="#BDBDBD"/>
<path fill-rule="evenodd" clip-rule="evenodd" d="M98.5275 221.982C99.6753 221.982 100.553 222.298 100.553 222.658C100.553 223.018 99.6753 223.333 98.5275 223.333C97.3797 223.333 96.502 223.018 96.502 222.658C96.502 222.298 97.3797 221.982 98.5275 221.982Z" fill="#F3F3F3"/>
<path fill-rule="evenodd" clip-rule="evenodd" d="M110.681 206.452V229.408H106.629V206.452H110.681Z" fill="#BDBDBD"/>
<path fill-rule="evenodd" clip-rule="evenodd" d="M108.655 228.058C109.803 228.058 110.681 228.643 110.681 229.312C110.681 229.98 109.803 230.565 108.655 230.565C107.507 230.565 106.629 229.98 106.629 229.312C106.629 228.643 107.507 228.058 108.655 228.058Z" fill="#BDBDBD"/>
<path fill-rule="evenodd" clip-rule="evenodd" d="M108.655 205.777C109.803 205.777 110.681 206.092 110.681 206.453C110.681 206.813 109.803 207.128 108.655 207.128C107.508 207.128 106.63 206.813 106.63 206.453C106.63 206.092 107.508 205.777 108.655 205.777Z" fill="#F3F3F3"/>
<path fill-rule="evenodd" clip-rule="evenodd" d="M130.936 153.113V171.343H126.885V153.113H130.936Z" fill="#BDBDBD"/>
<path fill-rule="evenodd" clip-rule="evenodd" d="M128.911 169.993C130.059 169.993 130.936 170.578 130.936 171.247C130.936 171.916 130.059 172.501 128.911 172.501C127.763 172.501 126.885 171.916 126.885 171.247C126.885 170.578 127.763 169.993 128.911 169.993Z" fill="#BDBDBD"/>
<path fill-rule="evenodd" clip-rule="evenodd" d="M128.911 152.438C130.059 152.438 130.936 152.754 130.936 153.114C130.936 153.474 130.059 153.789 128.911 153.789C127.763 153.789 126.885 153.474 126.885 153.114C126.885 152.754 127.763 152.438 128.911 152.438Z" fill="#F3F3F3"/>
<path fill-rule="evenodd" clip-rule="evenodd" d="M130.936 242.913V264.181L126.885 266.545V242.913H130.936Z" fill="#BDBDBD"/>
<path fill-rule="evenodd" clip-rule="evenodd" d="M128.911 242.237C130.059 242.237 130.936 242.552 130.936 242.912C130.936 243.273 130.059 243.588 128.911 243.588C127.763 243.588 126.885 243.273 126.885 242.912C126.885 242.552 127.763 242.237 128.911 242.237Z" fill="#F3F3F3"/>
<path fill-rule="evenodd" clip-rule="evenodd" d="M110.681 248.989V275.415L106.629 273.049V248.989H110.681Z" fill="#BDBDBD"/>
<path fill-rule="evenodd" clip-rule="evenodd" d="M108.655 248.314C109.803 248.314 110.681 248.63 110.681 248.99C110.681 249.35 109.803 249.665 108.655 249.665C107.507 249.665 106.629 249.35 106.629 248.99C106.629 248.63 107.507 248.314 108.655 248.314Z" fill="#F3F3F3"/>
<path fill-rule="evenodd" clip-rule="evenodd" d="M100.554 131.507V199.701H96.5024V131.507H100.554Z" fill="#BDBDBD"/>
<path fill-rule="evenodd" clip-rule="evenodd" d="M98.528 199.136C99.6758 199.136 100.554 199.425 100.554 199.756C100.554 200.087 99.6758 200.376 98.528 200.376C97.3802 200.376 96.5024 200.087 96.5024 199.756C96.5024 199.425 97.3802 199.136 98.528 199.136Z" fill="#BDBDBD"/>
<path fill-rule="evenodd" clip-rule="evenodd" d="M98.5275 130.832C99.6753 130.832 100.553 131.147 100.553 131.507C100.553 131.867 99.6753 132.182 98.5275 132.182C97.3797 132.182 96.502 131.867 96.502 131.507C96.502 131.147 97.3797 130.832 98.5275 130.832Z" fill="#F3F3F3"/>
</g>
<g opacity="0.5">
<path fill-rule="evenodd" clip-rule="evenodd" d="M293.951 207.281V257.245H289.899V207.281H293.951Z" fill="#BDBDBD"/>
<path fill-rule="evenodd" clip-rule="evenodd" d="M291.925 255.75C293.073 255.75 293.951 256.335 293.951 257.004C293.951 257.673 293.073 258.258 291.925 258.258C290.777 258.258 289.899 257.673 289.899 257.004C289.899 256.335 290.777 255.75 291.925 255.75Z" fill="#BDBDBD"/>
<path fill-rule="evenodd" clip-rule="evenodd" d="M283.823 207.956V246.442H279.772V207.956H283.823Z" fill="#BDBDBD"/>
<path fill-rule="evenodd" clip-rule="evenodd" d="M281.798 245.092C282.945 245.092 283.823 245.677 283.823 246.346C283.823 247.014 282.945 247.6 281.798 247.6C280.65 247.6 279.772 247.014 279.772 246.346C279.772 245.677 280.65 245.092 281.798 245.092Z" fill="#BDBDBD"/>
<path fill-rule="evenodd" clip-rule="evenodd" d="M281.798 207.281C282.945 207.281 283.823 207.596 283.823 207.956C283.823 208.317 282.945 208.632 281.798 208.632C280.65 208.632 279.772 208.317 279.772 207.956C279.772 207.596 280.65 207.281 281.798 207.281Z" fill="#06AFFF"/>
<path fill-rule="evenodd" clip-rule="evenodd" d="M304.078 195.804V218.76H300.027V195.804H304.078Z" fill="#BDBDBD"/>
<path fill-rule="evenodd" clip-rule="evenodd" d="M302.053 217.41C303.201 217.41 304.078 217.995 304.078 218.664C304.078 219.333 303.201 219.918 302.053 219.918C300.905 219.918 300.027 219.333 300.027 218.664C300.027 217.995 300.905 217.41 302.053 217.41Z" fill="#BDBDBD"/>
<path fill-rule="evenodd" clip-rule="evenodd" d="M173.213 157.192L173.213 145.537C173.213 145.537 284.142 95.7417 284.971 96.2153L395.37 146.658V157.448C395.37 157.448 395.37 158.524 394.294 159.062L285.859 221.595C285.03 222.069 283.728 222.069 282.899 221.595L173.864 158.79C173.035 158.317 173.213 157.192 173.213 157.192Z" fill="#DBDDDE"/>
<path fill-rule="evenodd" clip-rule="evenodd" d="M173.735 144.774L283.013 82.7272C283.842 82.2537 285.144 82.2537 285.973 82.7272L394.817 145.85C395.646 146.324 395.646 147.093 394.817 147.567L286.92 209.58C286.091 210.054 284.789 210.054 283.96 209.58L173.794 146.491C172.965 146.017 172.906 145.248 173.735 144.774Z" fill="#F3F3F3"/>
<path fill-rule="evenodd" clip-rule="evenodd" d="M239.506 144.398L283.408 118.981C283.735 118.783 284.259 118.783 284.651 118.981L328.815 144.596C329.142 144.794 329.142 145.124 328.815 145.322L284.979 170.673C284.651 170.871 284.128 170.871 283.735 170.673L239.506 145.058C239.179 144.86 239.179 144.596 239.506 144.398Z" fill="#DBDDDE"/>
<path fill-rule="evenodd" clip-rule="evenodd" d="M247.584 149.115C247.584 149.115 282.854 128.768 283.148 128.622C283.442 128.476 283.957 128.476 284.251 128.622C284.545 128.768 320.959 149.215 320.959 149.215C321.253 149.361 321.253 149.654 320.959 149.873L284.836 170.821C284.542 170.967 283.904 170.967 283.61 170.821L247.584 149.772C247.29 149.553 247.29 149.261 247.584 149.115Z" fill="#F9F9FE"/>
<path fill-rule="evenodd" clip-rule="evenodd" d="M273.696 234.965V264.728H269.645V234.965H273.696Z" fill="#BDBDBD"/>
<path fill-rule="evenodd" clip-rule="evenodd" d="M271.67 264.108C272.817 264.108 273.695 264.398 273.695 264.728C273.695 265.059 272.817 265.349 271.67 265.349C270.522 265.349 269.644 265.059 269.644 264.728C269.644 264.398 270.522 264.108 271.67 264.108Z" fill="#BDBDBD"/>
<path fill-rule="evenodd" clip-rule="evenodd" d="M271.67 234.289C272.817 234.289 273.695 234.604 273.695 234.964C273.695 235.324 272.817 235.639 271.67 235.639C270.522 235.639 269.644 235.324 269.644 234.964C269.644 234.604 270.522 234.289 271.67 234.289Z" fill="#F3F3F3"/>
<path fill-rule="evenodd" clip-rule="evenodd" d="M294 40.8486V141.789H289.949V40.8486H294Z" fill="#BDBDBD"/>
<path fill-rule="evenodd" clip-rule="evenodd" d="M291.925 140.631C293.073 140.631 293.951 141.216 293.951 141.885C293.951 142.554 293.073 143.139 291.925 143.139C290.777 143.139 289.899 142.554 289.899 141.885C289.899 141.216 290.777 140.631 291.925 140.631Z" fill="#BDBDBD"/>
<path fill-rule="evenodd" clip-rule="evenodd" d="M304.129 119.507V128.043H300.078V119.507H304.129Z" fill="#BDBDBD"/>
<path fill-rule="evenodd" clip-rule="evenodd" d="M302.103 126.935C303.251 126.935 304.129 127.52 304.129 128.188C304.129 128.857 303.251 129.442 302.103 129.442C300.955 129.442 300.078 128.857 300.078 128.188C300.078 127.52 300.955 126.935 302.103 126.935Z" fill="#BDBDBD"/>
<path fill-rule="evenodd" clip-rule="evenodd" d="M302.103 104.499C303.251 104.499 304.129 105.084 304.129 105.753C304.129 106.422 303.251 107.007 302.103 107.007C300.955 107.007 300.078 106.422 300.078 105.753C300.078 105.084 300.955 104.499 302.103 104.499Z" fill="#BDBDBD"/>
<path fill-rule="evenodd" clip-rule="evenodd" d="M302.103 118.832C303.251 118.832 304.128 119.147 304.128 119.507C304.128 119.867 303.251 120.182 302.103 120.182C300.955 120.182 300.077 119.867 300.077 119.507C300.077 119.147 300.955 118.832 302.103 118.832Z" fill="#F3F3F3"/>
<path fill-rule="evenodd" clip-rule="evenodd" d="M273.745 0.674805V9.21109H269.694V0.674805H273.745Z" fill="#BDBDBD"/>
<path fill-rule="evenodd" clip-rule="evenodd" d="M271.719 8.10156C272.867 8.10156 273.745 8.68672 273.745 9.35548C273.745 10.0242 272.867 10.6094 271.719 10.6094C270.572 10.6094 269.694 10.0242 269.694 9.35548C269.694 8.68672 270.572 8.10156 271.719 8.10156Z" fill="#BDBDBD"/>
<path fill-rule="evenodd" clip-rule="evenodd" d="M271.719 0C272.867 0 273.745 0.315087 273.745 0.675187C273.745 1.03529 272.867 1.35037 271.719 1.35037C270.572 1.35037 269.694 1.03529 269.694 0.675187C269.694 0.315087 270.572 0 271.719 0Z" fill="#F3F3F3"/>
<path fill-rule="evenodd" clip-rule="evenodd" d="M273.745 218.085V226.621H269.694V218.085H273.745Z" fill="#BDBDBD"/>
<path fill-rule="evenodd" clip-rule="evenodd" d="M271.719 225.513C272.867 225.513 273.745 226.098 273.745 226.767C273.745 227.435 272.867 228.021 271.719 228.021C270.572 228.021 269.694 227.435 269.694 226.767C269.694 226.098 270.572 225.513 271.719 225.513Z" fill="#BDBDBD"/>
<path fill-rule="evenodd" clip-rule="evenodd" d="M304.128 76.2959V106.059H300.077V76.2959H304.128Z" fill="#BDBDBD"/>
<path fill-rule="evenodd" clip-rule="evenodd" d="M302.103 75.6201C303.251 75.6201 304.128 75.9352 304.128 76.2953C304.128 76.6554 303.251 76.9705 302.103 76.9705C300.955 76.9705 300.077 76.6554 300.077 76.2953C300.077 75.9352 300.955 75.6201 302.103 75.6201Z" fill="#F3F3F3"/>
<path fill-rule="evenodd" clip-rule="evenodd" d="M271.719 217.41C272.867 217.41 273.745 217.725 273.745 218.085C273.745 218.445 272.867 218.761 271.719 218.761C270.572 218.761 269.694 218.445 269.694 218.085C269.694 217.725 270.572 217.41 271.719 217.41Z" fill="#F3F3F3"/>
<path fill-rule="evenodd" clip-rule="evenodd" d="M304.128 228.213V236.749H300.077V228.213H304.128Z" fill="#BDBDBD"/>
<path fill-rule="evenodd" clip-rule="evenodd" d="M302.103 235.64C303.251 235.64 304.128 236.225 304.128 236.894C304.128 237.562 303.251 238.147 302.103 238.147C300.955 238.147 300.077 237.562 300.077 236.894C300.077 236.225 300.955 235.64 302.103 235.64Z" fill="#BDBDBD"/>
<path fill-rule="evenodd" clip-rule="evenodd" d="M302.103 227.538C303.251 227.538 304.128 227.853 304.128 228.213C304.128 228.573 303.251 228.888 302.103 228.888C300.955 228.888 300.077 228.573 300.077 228.213C300.077 227.853 300.955 227.538 302.103 227.538Z" fill="#F3F3F3"/>
<path fill-rule="evenodd" clip-rule="evenodd" d="M304.128 27.6826V36.2189H300.077V27.6826H304.128Z" fill="#BDBDBD"/>
<path fill-rule="evenodd" clip-rule="evenodd" d="M302.103 35.1104C303.251 35.1104 304.128 35.6955 304.128 36.3643C304.128 37.033 303.251 37.6182 302.103 37.6182C300.955 37.6182 300.077 37.033 300.077 36.3643C300.077 35.6955 300.955 35.1104 302.103 35.1104Z" fill="#BDBDBD"/>
<path fill-rule="evenodd" clip-rule="evenodd" d="M302.103 27.0078C303.251 27.0078 304.128 27.3229 304.128 27.683C304.128 28.0431 303.251 28.3582 302.103 28.3582C300.955 28.3582 300.077 28.0431 300.077 27.683C300.077 27.3229 300.955 27.0078 302.103 27.0078Z" fill="#F3F3F3"/>
<path fill-rule="evenodd" clip-rule="evenodd" d="M304.128 245.768V261.056C302.546 261.056 301.659 261.056 300.077 261.056V245.768H304.128Z" fill="#BDBDBD"/>
<path fill-rule="evenodd" clip-rule="evenodd" d="M302.103 259.947C303.251 259.947 304.128 260.532 304.128 261.201C304.128 261.87 303.251 262.455 302.103 262.455C300.955 262.455 300.077 261.87 300.077 261.201C300.077 260.532 300.955 259.947 302.103 259.947Z" fill="#BDBDBD"/>
<path fill-rule="evenodd" clip-rule="evenodd" d="M302.103 245.093C303.251 245.093 304.128 245.408 304.128 245.768C304.128 246.128 303.251 246.443 302.103 246.443C300.955 246.443 300.077 246.128 300.077 245.768C300.077 245.408 300.955 245.093 302.103 245.093Z" fill="#F3F3F3"/>
<path fill-rule="evenodd" clip-rule="evenodd" d="M294.001 18.9053V24.0656C292.419 24.0656 291.532 24.0656 289.95 24.0656V18.9053H294.001Z" fill="#BDBDBD"/>
<path fill-rule="evenodd" clip-rule="evenodd" d="M291.975 22.9561C293.123 22.9561 294.001 23.5412 294.001 24.21C294.001 24.8787 293.123 25.4639 291.975 25.4639C290.827 25.4639 289.95 24.8787 289.95 24.21C289.95 23.5412 290.827 22.9561 291.975 22.9561Z" fill="#BDBDBD"/>
<path fill-rule="evenodd" clip-rule="evenodd" d="M291.975 18.2295C293.123 18.2295 294.001 18.5446 294.001 18.9047C294.001 19.2648 293.123 19.5799 291.975 19.5799C290.827 19.5799 289.95 19.2648 289.95 18.9047C289.95 18.5446 290.827 18.2295 291.975 18.2295Z" fill="#F3F3F3"/>
<path fill-rule="evenodd" clip-rule="evenodd" d="M294.001 150.566V159.103H289.95V150.566H294.001Z" fill="#BDBDBD"/>
<path fill-rule="evenodd" clip-rule="evenodd" d="M291.975 157.993C293.123 157.993 294.001 158.578 294.001 159.247C294.001 159.916 293.123 160.501 291.975 160.501C290.827 160.501 289.95 159.916 289.95 159.247C289.95 158.578 290.827 157.993 291.975 157.993Z" fill="#BDBDBD"/>
<path fill-rule="evenodd" clip-rule="evenodd" d="M291.975 149.891C293.123 149.891 294.001 150.206 294.001 150.566C294.001 150.926 293.123 151.241 291.975 151.241C290.827 151.241 289.95 150.926 289.95 150.566C289.95 150.206 290.827 149.891 291.975 149.891Z" fill="#F3F3F3"/>
<path fill-rule="evenodd" clip-rule="evenodd" d="M291.975 40.1729C293.123 40.1729 294.001 40.4879 294.001 40.848C294.001 41.2081 293.123 41.5232 291.975 41.5232C290.827 41.5232 289.95 41.2081 289.95 40.848C289.95 40.4879 290.827 40.1729 291.975 40.1729Z" fill="#F3F3F3"/>
<path fill-rule="evenodd" clip-rule="evenodd" d="M283.823 6.07715V87.0995H279.772V6.07715H283.823Z" fill="#BDBDBD"/>
<path fill-rule="evenodd" clip-rule="evenodd" d="M281.798 85.9414C282.945 85.9414 283.823 86.5266 283.823 87.1953C283.823 87.8641 282.945 88.4492 281.798 88.4492C280.65 88.4492 279.772 87.8641 279.772 87.1953C279.772 86.5266 280.65 85.9414 281.798 85.9414Z" fill="#BDBDBD"/>
<path fill-rule="evenodd" clip-rule="evenodd" d="M281.798 5.40137C282.945 5.40137 283.823 5.71645 283.823 6.07655C283.823 6.43665 282.945 6.75174 281.798 6.75174C280.65 6.75174 279.772 6.43665 279.772 6.07655C279.772 5.71645 280.65 5.40137 281.798 5.40137Z" fill="#F3F3F3"/>
<path fill-rule="evenodd" clip-rule="evenodd" d="M273.695 118.158V156.644H269.644V118.158H273.695Z" fill="#BDBDBD"/>
<path fill-rule="evenodd" clip-rule="evenodd" d="M271.67 155.293C272.817 155.293 273.695 155.878 273.695 156.547C273.695 157.216 272.817 157.801 271.67 157.801C270.522 157.801 269.644 157.216 269.644 156.547C269.644 155.878 270.522 155.293 271.67 155.293Z" fill="#BDBDBD"/>
<path fill-rule="evenodd" clip-rule="evenodd" d="M271.67 117.482C272.817 117.482 273.695 117.798 273.695 118.158C273.695 118.518 272.817 118.833 271.67 118.833C270.522 118.833 269.644 118.518 269.644 118.158C269.644 117.798 270.522 117.482 271.67 117.482Z" fill="#F3F3F3"/>
<path fill-rule="evenodd" clip-rule="evenodd" d="M283.823 101.953V124.909H279.772V101.953H283.823Z" fill="#BDBDBD"/>
<path fill-rule="evenodd" clip-rule="evenodd" d="M281.798 123.559C282.945 123.559 283.823 124.144 283.823 124.813C283.823 125.481 282.945 126.066 281.798 126.066C280.65 126.066 279.772 125.481 279.772 124.813C279.772 124.144 280.65 123.559 281.798 123.559Z" fill="#BDBDBD"/>
<path fill-rule="evenodd" clip-rule="evenodd" d="M281.798 101.277C282.945 101.277 283.823 101.592 283.823 101.953C283.823 102.313 282.945 102.628 281.798 102.628C280.65 102.628 279.772 102.313 279.772 101.953C279.772 101.592 280.65 101.277 281.798 101.277Z" fill="#F3F3F3"/>
<path fill-rule="evenodd" clip-rule="evenodd" d="M304.078 48.6133V66.8433H300.027V48.6133H304.078Z" fill="#BDBDBD"/>
<path fill-rule="evenodd" clip-rule="evenodd" d="M302.053 65.4932C303.201 65.4932 304.078 66.0783 304.078 66.7471C304.078 67.4158 303.201 68.001 302.053 68.001C300.905 68.001 300.027 67.4158 300.027 66.7471C300.027 66.0783 300.905 65.4932 302.053 65.4932Z" fill="#BDBDBD"/>
<path fill-rule="evenodd" clip-rule="evenodd" d="M302.053 47.9375C303.201 47.9375 304.078 48.2526 304.078 48.6127C304.078 48.9728 303.201 49.2879 302.053 49.2879C300.905 49.2879 300.027 48.9728 300.027 48.6127C300.027 48.2526 300.905 47.9375 302.053 47.9375Z" fill="#F3F3F3"/>
<path fill-rule="evenodd" clip-rule="evenodd" d="M304.078 138.413V159.681L300.027 162.045V138.413H304.078Z" fill="#BDBDBD"/>
<path fill-rule="evenodd" clip-rule="evenodd" d="M302.053 137.738C303.201 137.738 304.078 138.053 304.078 138.413C304.078 138.774 303.201 139.089 302.053 139.089C300.905 139.089 300.027 138.774 300.027 138.413C300.027 138.053 300.905 137.738 302.053 137.738Z" fill="#F3F3F3"/>
<path fill-rule="evenodd" clip-rule="evenodd" d="M283.823 144.49V170.916L279.772 168.55V144.49H283.823Z" fill="#BDBDBD"/>
<path fill-rule="evenodd" clip-rule="evenodd" d="M281.798 143.814C282.945 143.814 283.823 144.13 283.823 144.49C283.823 144.85 282.945 145.165 281.798 145.165C280.65 145.165 279.772 144.85 279.772 144.49C279.772 144.13 280.65 143.814 281.798 143.814Z" fill="#F3F3F3"/>
<path fill-rule="evenodd" clip-rule="evenodd" d="M273.695 27.0068V95.2007H269.644V27.0068H273.695Z" fill="#BDBDBD"/>
<path fill-rule="evenodd" clip-rule="evenodd" d="M271.67 94.6357C272.817 94.6357 273.695 94.9251 273.695 95.2558C273.695 95.5865 272.817 95.8759 271.67 95.8759C270.522 95.8759 269.644 95.5865 269.644 95.2558C269.644 94.9251 270.522 94.6357 271.67 94.6357Z" fill="#BDBDBD"/>
<path fill-rule="evenodd" clip-rule="evenodd" d="M271.67 26.3311C272.817 26.3311 273.695 26.6461 273.695 27.0062C273.695 27.3663 272.817 27.6814 271.67 27.6814C270.522 27.6814 269.644 27.3663 269.644 27.0062C269.644 26.6461 270.522 26.3311 271.67 26.3311Z" fill="#F3F3F3"/>
</g>
<path fill-rule="evenodd" clip-rule="evenodd" d="M328.792 464.103V539.916H322.645V464.103H328.792Z" fill="#FFD215"/>
<path fill-rule="evenodd" clip-rule="evenodd" d="M325.719 537.647C327.46 537.647 328.792 538.535 328.792 539.55C328.792 540.565 327.46 541.453 325.719 541.453C323.977 541.453 322.645 540.565 322.645 539.55C322.645 538.535 323.977 537.647 325.719 537.647Z" fill="#FFD215"/>
<path fill-rule="evenodd" clip-rule="evenodd" d="M313.425 465.127V523.524H307.278V465.127H313.425Z" fill="#3C8AFE"/>
<path fill-rule="evenodd" clip-rule="evenodd" d="M310.351 521.476C312.093 521.476 313.425 522.363 313.425 523.378C313.425 524.393 312.093 525.281 310.351 525.281C308.61 525.281 307.278 524.393 307.278 523.378C307.278 522.363 308.61 521.476 310.351 521.476Z" fill="#3C8AFE"/>
<path fill-rule="evenodd" clip-rule="evenodd" d="M310.351 464.103C312.093 464.103 313.425 464.581 313.425 465.127C313.425 465.673 312.093 466.152 310.351 466.152C308.61 466.152 307.278 465.673 307.278 465.127C307.278 464.581 308.61 464.103 310.351 464.103Z" fill="#06AFFF"/>
<path fill-rule="evenodd" clip-rule="evenodd" d="M344.16 446.686V481.519H338.013V446.686H344.16Z" fill="#17CE8A"/>
<path fill-rule="evenodd" clip-rule="evenodd" d="M341.086 479.47C342.828 479.47 344.16 480.358 344.16 481.372C344.16 482.387 342.828 483.275 341.086 483.275C339.345 483.275 338.013 482.387 338.013 481.372C338.013 480.358 339.345 479.47 341.086 479.47Z" fill="#17CE8A"/>
<path fill-rule="evenodd" clip-rule="evenodd" d="M145.588 388.097L145.588 370.412C145.588 370.412 313.909 294.854 315.167 295.572L482.683 372.113V388.485C482.683 388.485 482.683 390.117 481.05 390.934L316.514 485.821C315.257 486.539 313.281 486.539 312.023 485.821L146.576 390.522C145.318 389.803 145.588 388.097 145.588 388.097Z" fill="#DBDDDE"/>
<path fill-rule="evenodd" clip-rule="evenodd" d="M146.38 369.256L312.196 275.107C313.453 274.389 315.429 274.389 316.687 275.107L481.845 370.888C483.102 371.607 483.102 372.774 481.845 373.493L318.124 467.59C316.866 468.309 314.89 468.309 313.633 467.59L146.47 371.86C145.212 371.142 145.122 369.974 146.38 369.256Z" fill="#F3F3F3"/>
<path fill-rule="evenodd" clip-rule="evenodd" d="M246.179 368.684L312.795 330.117C313.292 329.816 314.086 329.816 314.682 330.117L381.695 368.985C382.191 369.285 382.191 369.786 381.695 370.087L315.178 408.554C314.682 408.854 313.887 408.854 313.292 408.554L246.179 369.686C245.683 369.385 245.683 368.985 246.179 368.684Z" fill="#DBDDDE"/>
<path fill-rule="evenodd" clip-rule="evenodd" d="M258.436 375.842C258.436 375.842 311.954 344.969 312.4 344.747C312.846 344.526 313.627 344.526 314.074 344.747C314.52 344.969 369.773 375.995 369.773 375.995C370.219 376.216 370.219 376.66 369.773 376.992L314.961 408.779C314.515 409.001 313.546 409.001 313.1 408.779L258.436 376.84C257.99 376.507 257.99 376.064 258.436 375.842Z" fill="#F9F9FE"/>
<path fill-rule="evenodd" clip-rule="evenodd" d="M298.057 506.107V551.27H291.91V506.107H298.057Z" fill="#F32626"/>
<path fill-rule="evenodd" clip-rule="evenodd" d="M294.984 550.328C296.725 550.328 298.057 550.767 298.057 551.269C298.057 551.771 296.725 552.21 294.984 552.21C293.242 552.21 291.91 551.771 291.91 551.269C291.91 550.767 293.242 550.328 294.984 550.328Z" fill="#F32626"/>
<path fill-rule="evenodd" clip-rule="evenodd" d="M294.984 505.083C296.725 505.083 298.057 505.561 298.057 506.108C298.057 506.654 296.725 507.132 294.984 507.132C293.242 507.132 291.91 506.654 291.91 506.108C291.91 505.561 293.242 505.083 294.984 505.083Z" fill="#F67C7C"/>
<path fill-rule="evenodd" clip-rule="evenodd" d="M328.868 211.561V364.725H322.721V211.561H328.868Z" fill="#FFD215"/>
<path fill-rule="evenodd" clip-rule="evenodd" d="M325.719 362.969C327.46 362.969 328.792 363.857 328.792 364.871C328.792 365.886 327.46 366.774 325.719 366.774C323.977 366.774 322.645 365.886 322.645 364.871C322.645 363.857 323.977 362.969 325.719 362.969Z" fill="#FFD215"/>
<path fill-rule="evenodd" clip-rule="evenodd" d="M344.235 330.916V343.869H338.088V330.916H344.235Z" fill="#FFD215"/>
<path fill-rule="evenodd" clip-rule="evenodd" d="M341.162 342.186C342.904 342.186 344.235 343.073 344.235 344.088C344.235 345.103 342.904 345.991 341.162 345.991C339.42 345.991 338.088 345.103 338.088 344.088C338.088 343.073 339.42 342.186 341.162 342.186Z" fill="#FFD215"/>
<path fill-rule="evenodd" clip-rule="evenodd" d="M341.162 329.892C342.904 329.892 344.235 330.37 344.235 330.916C344.235 331.463 342.904 331.941 341.162 331.941C339.42 331.941 338.088 331.463 338.088 330.916C338.088 330.37 339.42 329.892 341.162 329.892Z" fill="#FFEE50"/>
<path fill-rule="evenodd" clip-rule="evenodd" d="M298.132 150.603V163.555H291.985V150.603H298.132Z" fill="#FFD215"/>
<path fill-rule="evenodd" clip-rule="evenodd" d="M295.059 161.872C296.801 161.872 298.132 162.76 298.132 163.775C298.132 164.789 296.801 165.677 295.059 165.677C293.317 165.677 291.985 164.789 291.985 163.775C291.985 162.76 293.317 161.872 295.059 161.872Z" fill="#FFD215"/>
<path fill-rule="evenodd" clip-rule="evenodd" d="M295.059 149.578C296.801 149.578 298.132 150.056 298.132 150.603C298.132 151.149 296.801 151.627 295.059 151.627C293.317 151.627 291.985 151.149 291.985 150.603C291.985 150.056 293.317 149.578 295.059 149.578Z" fill="#FFEE50"/>
<path d="M298.133 493.447H298.109C298.123 493.52 298.133 493.593 298.133 493.667C298.133 494.682 296.8 495.57 295.059 495.57C293.317 495.57 291.985 494.682 291.985 493.667C291.985 493.593 291.995 493.52 292.009 493.447H291.985V480.495H298.133V493.447Z" fill="#17CE8A"/>
<path fill-rule="evenodd" clip-rule="evenodd" d="M344.235 265.348V310.51H338.088V265.348H344.235Z" fill="#F32626"/>
<path fill-rule="evenodd" clip-rule="evenodd" d="M341.162 264.323C342.904 264.323 344.235 264.801 344.235 265.348C344.235 265.894 342.904 266.372 341.162 266.372C339.42 266.372 338.088 265.894 338.088 265.348C338.088 264.801 339.42 264.323 341.162 264.323Z" fill="#F67C7C"/>
<path fill-rule="evenodd" clip-rule="evenodd" d="M295.059 479.471C296.801 479.471 298.132 479.949 298.132 480.495C298.132 481.042 296.801 481.52 295.059 481.52C293.317 481.52 291.985 481.042 291.985 480.495C291.985 479.949 293.317 479.471 295.059 479.471Z" fill="#42E7AA"/>
<path fill-rule="evenodd" clip-rule="evenodd" d="M344.235 495.862V508.815H338.088V495.862H344.235Z" fill="#2F80ED"/>
<path fill-rule="evenodd" clip-rule="evenodd" d="M341.162 507.133C342.904 507.133 344.235 508.021 344.235 509.035C344.235 510.05 342.904 510.938 341.162 510.938C339.42 510.938 338.088 510.05 338.088 509.035C338.088 508.021 339.42 507.133 341.162 507.133Z" fill="#2F80ED"/>
<path fill-rule="evenodd" clip-rule="evenodd" d="M341.162 494.838C342.904 494.838 344.235 495.316 344.235 495.862C344.235 496.409 342.904 496.887 341.162 496.887C339.42 496.887 338.088 496.409 338.088 495.862C338.088 495.316 339.42 494.838 341.162 494.838Z" fill="#47D2FF"/>
<path fill-rule="evenodd" clip-rule="evenodd" d="M344.235 191.583V204.536H338.088V191.583H344.235Z" fill="#2F80ED"/>
<path fill-rule="evenodd" clip-rule="evenodd" d="M341.162 202.853C342.904 202.853 344.235 203.74 344.235 204.755C344.235 205.77 342.904 206.658 341.162 206.658C339.42 206.658 338.088 205.77 338.088 204.755C338.088 203.74 339.42 202.853 341.162 202.853Z" fill="#2F80ED"/>
<path fill-rule="evenodd" clip-rule="evenodd" d="M341.162 190.559C342.904 190.559 344.235 191.037 344.235 191.583C344.235 192.13 342.904 192.608 341.162 192.608C339.42 192.608 338.088 192.13 338.088 191.583C338.088 191.037 339.42 190.559 341.162 190.559Z" fill="#47D2FF"/>
<path fill-rule="evenodd" clip-rule="evenodd" d="M344.235 522.5V545.698C341.835 545.698 340.489 545.698 338.088 545.698V522.5H344.235Z" fill="#FF5256"/>
<path fill-rule="evenodd" clip-rule="evenodd" d="M341.162 544.016C342.904 544.016 344.235 544.904 344.235 545.918C344.235 546.933 342.904 547.821 341.162 547.821C339.42 547.821 338.088 546.933 338.088 545.918C338.088 544.904 339.42 544.016 341.162 544.016Z" fill="#FF5256"/>
<path fill-rule="evenodd" clip-rule="evenodd" d="M341.162 521.476C342.904 521.476 344.235 521.954 344.235 522.5C344.235 523.047 342.904 523.525 341.162 523.525C339.42 523.525 338.088 523.047 338.088 522.5C338.088 521.954 339.42 521.476 341.162 521.476Z" fill="#F67C7C"/>
<path fill-rule="evenodd" clip-rule="evenodd" d="M328.868 178.264V186.094C326.467 186.094 325.121 186.094 322.721 186.094V178.264H328.868Z" fill="#FF5256"/>
<path fill-rule="evenodd" clip-rule="evenodd" d="M325.794 184.411C327.536 184.411 328.868 185.299 328.868 186.314C328.868 187.329 327.536 188.216 325.794 188.216C324.053 188.216 322.721 187.329 322.721 186.314C322.721 185.299 324.053 184.411 325.794 184.411Z" fill="#FF5256"/>
<path fill-rule="evenodd" clip-rule="evenodd" d="M325.794 177.24C327.536 177.24 328.868 177.718 328.868 178.265C328.868 178.811 327.536 179.289 325.794 179.289C324.053 179.289 322.721 178.811 322.721 178.265C322.721 177.718 324.053 177.24 325.794 177.24Z" fill="#F67C7C"/>
<path fill-rule="evenodd" clip-rule="evenodd" d="M328.868 378.044V390.997H322.721V378.044H328.868Z" fill="#2F80ED"/>
<path fill-rule="evenodd" clip-rule="evenodd" d="M325.794 389.313C327.536 389.313 328.868 390.201 328.868 391.216C328.868 392.231 327.536 393.119 325.794 393.119C324.053 393.119 322.721 392.231 322.721 391.216C322.721 390.201 324.053 389.313 325.794 389.313Z" fill="#2F80ED"/>
<path fill-rule="evenodd" clip-rule="evenodd" d="M325.794 377.02C327.536 377.02 328.868 377.498 328.868 378.044C328.868 378.59 327.536 379.069 325.794 379.069C324.053 379.069 322.721 378.59 322.721 378.044C322.721 377.498 324.053 377.02 325.794 377.02Z" fill="#47D2FF"/>
<path fill-rule="evenodd" clip-rule="evenodd" d="M325.794 210.536C327.536 210.536 328.868 211.014 328.868 211.561C328.868 212.107 327.536 212.585 325.794 212.585C324.053 212.585 322.721 212.107 322.721 211.561C322.721 211.014 324.053 210.536 325.794 210.536Z" fill="#FFEE50"/>
<path fill-rule="evenodd" clip-rule="evenodd" d="M313.425 158.799V281.74H307.278V158.799H313.425Z" fill="#3C8AFE"/>
<path fill-rule="evenodd" clip-rule="evenodd" d="M310.351 279.983C312.093 279.983 313.425 280.871 313.425 281.886C313.425 282.901 312.093 283.789 310.351 283.789C308.61 283.789 307.278 282.901 307.278 281.886C307.278 280.871 308.61 279.983 310.351 279.983Z" fill="#3C8AFE"/>
<path fill-rule="evenodd" clip-rule="evenodd" d="M310.351 157.773C312.093 157.773 313.425 158.252 313.425 158.798C313.425 159.344 312.093 159.822 310.351 159.822C308.61 159.822 307.278 159.344 307.278 158.798C307.278 158.252 308.61 157.773 310.351 157.773Z" fill="#06AFFF"/>
<path fill-rule="evenodd" clip-rule="evenodd" d="M298.057 328.867V387.264H291.91V328.867H298.057Z" fill="#3C8AFE"/>
<path fill-rule="evenodd" clip-rule="evenodd" d="M294.983 385.215C296.725 385.215 298.057 386.103 298.057 387.118C298.057 388.132 296.725 389.02 294.983 389.02C293.242 389.02 291.91 388.132 291.91 387.118C291.91 386.103 293.242 385.215 294.983 385.215Z" fill="#3C8AFE"/>
<path fill-rule="evenodd" clip-rule="evenodd" d="M294.983 327.843C296.725 327.843 298.057 328.321 298.057 328.867C298.057 329.414 296.725 329.892 294.983 329.892C293.242 329.892 291.91 329.414 291.91 328.867C291.91 328.321 293.242 327.843 294.983 327.843Z" fill="#06AFFF"/>
<path fill-rule="evenodd" clip-rule="evenodd" d="M313.425 304.279V339.113H307.278V304.279H313.425Z" fill="#17CE8A"/>
<path fill-rule="evenodd" clip-rule="evenodd" d="M310.351 337.064C312.093 337.064 313.425 337.952 313.425 338.967C313.425 339.982 312.093 340.87 310.351 340.87C308.61 340.87 307.278 339.982 307.278 338.967C307.278 337.952 308.61 337.064 310.351 337.064Z" fill="#17CE8A"/>
<path fill-rule="evenodd" clip-rule="evenodd" d="M310.351 303.255C312.093 303.255 313.425 303.733 313.425 304.279C313.425 304.826 312.093 305.304 310.351 305.304C308.61 305.304 307.278 304.826 307.278 304.279C307.278 303.733 308.61 303.255 310.351 303.255Z" fill="#42E7AA"/>
<path fill-rule="evenodd" clip-rule="evenodd" d="M344.16 223.342V251.004H338.013V223.342H344.16Z" fill="#17CE8A"/>
<path fill-rule="evenodd" clip-rule="evenodd" d="M341.086 248.955C342.828 248.955 344.16 249.843 344.16 250.858C344.16 251.872 342.828 252.76 341.086 252.76C339.345 252.76 338.013 251.872 338.013 250.858C338.013 249.843 339.345 248.955 341.086 248.955Z" fill="#17CE8A"/>
<path fill-rule="evenodd" clip-rule="evenodd" d="M341.086 222.318C342.828 222.318 344.16 222.796 344.16 223.343C344.16 223.889 342.828 224.367 341.086 224.367C339.345 224.367 338.013 223.889 338.013 223.343C338.013 222.796 339.345 222.318 341.086 222.318Z" fill="#42E7AA"/>
<path fill-rule="evenodd" clip-rule="evenodd" d="M344.16 359.603V391.875L338.013 395.46V359.603H344.16Z" fill="#17CE8A"/>
<path fill-rule="evenodd" clip-rule="evenodd" d="M341.086 358.578C342.828 358.578 344.16 359.056 344.16 359.603C344.16 360.149 342.828 360.627 341.086 360.627C339.345 360.627 338.013 360.149 338.013 359.603C338.013 359.056 339.345 358.578 341.086 358.578Z" fill="#42E7AA"/>
<path fill-rule="evenodd" clip-rule="evenodd" d="M313.425 368.823V408.921L307.278 405.331V368.823H313.425Z" fill="#F32626"/>
<path fill-rule="evenodd" clip-rule="evenodd" d="M310.351 367.799C312.093 367.799 313.425 368.277 313.425 368.823C313.425 369.37 312.093 369.848 310.351 369.848C308.61 369.848 307.278 369.37 307.278 368.823C307.278 368.277 308.61 367.799 310.351 367.799Z" fill="#F67C7C"/>
<path fill-rule="evenodd" clip-rule="evenodd" d="M298.057 190.559V294.034H291.91V190.559H298.057Z" fill="#F32626"/>
<path fill-rule="evenodd" clip-rule="evenodd" d="M294.984 293.177C296.725 293.177 298.057 293.616 298.057 294.118C298.057 294.619 296.725 295.059 294.984 295.059C293.242 295.059 291.91 294.619 291.91 294.118C291.91 293.616 293.242 293.177 294.984 293.177Z" fill="#F32626"/>
<path fill-rule="evenodd" clip-rule="evenodd" d="M294.984 189.534C296.725 189.534 298.057 190.012 298.057 190.559C298.057 191.105 296.725 191.583 294.984 191.583C293.242 191.583 291.91 191.105 291.91 190.559C291.91 190.012 293.242 189.534 294.984 189.534Z" fill="#F67C7C"/>
</svg>
